<?xml version="1.0" standalone="no"?>
<!DOCTYPE svg PUBLIC "-//W3C//DTD SVG 20010904//EN"
 "http://www.w3.org/TR/2001/REC-SVG-20010904/DTD/svg10.dtd">
<svg version="1.0" xmlns="http://www.w3.org/2000/svg"
 width="400.000000pt" height="400.000000pt" viewBox="0 0 400.000000 400.000000"
 preserveAspectRatio="xMidYMid meet">
<metadata>
Created by potrace 1.14, written by Peter Selinger 2001-2017
</metadata>
<g transform="translate(0.000000,400.000000) scale(0.100000,-0.100000)"
fill="#000000" stroke="none">
<path d="M1231 3455 c-5 -5 -151 -370 -326 -810 -174 -440 -323 -813 -330
-830 -7 -16 -47 -115 -88 -220 -42 -104 -152 -383 -246 -619 -94 -236 -169
-432 -166 -434 3 -3 291 -5 642 -5 537 0 638 2 645 14 4 8 23 66 42 129 19 63
51 167 70 230 l36 115 490 0 490 0 51 -160 c101 -320 103 -325 119 -326 66 -3
1261 -1 1265 3 5 4 -274 713 -352 895 -7 18 -25 63 -39 100 -14 38 -31 82 -38
98 -8 17 -48 118 -91 225 -42 107 -83 211 -91 230 -8 19 -135 336 -282 704
l-267 669 -763 1 c-499 1 -766 -2 -771 -9z m929 -692 c88 -22 141 -45 221 -99
127 -84 224 -210 275 -359 25 -72 28 -93 28 -215 0 -141 -3 -161 -33 -240
-168 -441 -684 -602 -1066 -332 -63 44 -127 111 -174 182 -84 124 -115 229
-114 385 0 120 16 197 60 293 33 71 119 187 169 227 21 17 43 36 50 43 23 22
158 90 214 107 30 9 75 19 100 22 25 3 46 6 48 8 8 7 167 -8 222 -22z"/>
<path d="M1889 2492 c0 -26 -1 -109 -1 -186 0 -137 0 -139 -28 -178 -73 -100
-29 -235 86 -267 54 -15 119 0 158 36 28 25 30 26 187 26 l159 0 0 101 0 102
-157 -1 c-217 -1 -203 -16 -203 224 l0 188 -100 0 -100 1 -1 -46z"/>
</g>
</svg>
