<?xml version="1.0" standalone="no"?>
<!DOCTYPE svg PUBLIC "-//W3C//DTD SVG 20010904//EN"
 "http://www.w3.org/TR/2001/REC-SVG-20010904/DTD/svg10.dtd">
<svg version="1.0" xmlns="http://www.w3.org/2000/svg"
 width="400.000000pt" height="400.000000pt" viewBox="0 0 400.000000 400.000000"
 preserveAspectRatio="xMidYMid meet">
<metadata>
Created by potrace 1.14, written by Peter Selinger 2001-2017
</metadata>
<g transform="translate(0.000000,400.000000) scale(0.100000,-0.100000)"
fill="#000000" stroke="none">
<path d="M657 2011 c-318 -797 -577 -1454 -577 -1460 0 -8 178 -10 642 -9
l641 3 49 160 c27 88 60 197 73 243 l26 82 489 0 489 0 51 -162 c28 -90 63
-200 78 -245 l26 -83 638 0 c504 0 638 3 638 13 -1 6 -261 662 -578 1457
l-577 1445 -766 3 -766 2 -576 -1449z m1507 749 c231 -59 416 -233 493 -465
24 -70 27 -96 27 -210 0 -114 -3 -140 -27 -210 -38 -114 -91 -199 -178 -285
-131 -132 -298 -200 -487 -200 -117 0 -201 19 -311 72 -70 33 -101 57 -176
132 -76 75 -100 106 -134 176 -56 116 -75 194 -75 315 0 121 19 199 75 315 34
70 58 101 133 176 101 100 186 150 312 184 96 26 247 26 348 0z"/>
<path d="M1897 2416 c-152 -42 -254 -188 -245 -349 7 -131 76 -235 196 -294
49 -24 69 -28 142 -28 71 0 94 4 141 26 79 37 133 90 170 165 28 57 32 75 32
148 0 67 -5 93 -25 138 -55 120 -167 197 -295 204 -38 2 -89 -2 -116 -10z
m138 -240 c39 -17 57 -45 57 -91 0 -44 -16 -72 -54 -91 -93 -48 -191 68 -127
150 36 45 70 54 124 32z"/>
</g>
</svg>
