<?xml version="1.0" encoding="utf-8"?>
<!-- Generator: Adobe Illustrator 28.3.0, SVG Export Plug-In . SVG Version: 6.00 Build 0)  -->
<svg version="1.1" id="Capa_1" xmlns="http://www.w3.org/2000/svg" xmlns:xlink="http://www.w3.org/1999/xlink" x="0px" y="0px"
	 viewBox="0 0 1160.5 148.9" style="enable-background:new 0 0 1160.5 148.9;" xml:space="preserve">
<style type="text/css">
	.st0{fill:#272723;}
</style>
<path class="st0" d="M330.7,8.4v134.2h-49l-42.1-68.9v68.9h-47.5V8.4h51.6l39.5,68.5V8.4H330.7z"/>
<path class="st0" d="M460.3,97.5c0,33-23,47.7-58.4,47.7c-24,0-40.7-4.2-55.8-10.1l8.1-36.3c12.7,6.2,25.2,10.9,44.3,10.9
	c8.5,0,11.1-2.2,11.1-5c0-9.9-63.5-1.8-63.1-52.6c0.2-30,23-46.3,57.2-46.3c18.9,0,36.5,3.4,51.4,7.7L447,49.7
	c-8.7-4-24-7.9-39.7-7.9c-6.8,0-11.1,1-11.1,5C396.1,56.4,460.3,50.1,460.3,97.5L460.3,97.5z"/>
<path class="st0" d="M528.8,86.3h-51.8v-78h51.8C528.8,8.4,528.8,86.4,528.8,86.3z"/>
<path class="st0" d="M680.1,8.4v81.2c0,38.1-24.2,55.6-64.9,55.6s-64.7-17.5-64.7-55.6V8.4h51.8V89c0,9.5,2,16.7,12.9,16.7
	s13.1-7.3,13.1-16.7V8.4H680.1L680.1,8.4z"/>
<path class="st0" d="M840.1,76.3c0,59.4-55.6,68.9-93.1,68.9c-17.5,0-34.2-1.6-45.3-2.8V9.2c14.7-2.2,30-3.4,51.6-3.4
	C804.5,5.8,840.1,31,840.1,76.3L840.1,76.3z M759.2,107.3c20.1,0,28.6-14.1,28.6-33.4s-10.1-31.4-28.2-31.4c-2,0-4.8,0-6.3,0.2v64.3
	C754.9,107.3,757.5,107.3,759.2,107.3L759.2,107.3z"/>
<path class="st0" d="M1156.7,76.3c0,59.4-55.6,68.9-93.1,68.9c-17.5,0-34.2-1.6-45.3-2.8V9.2c14.7-2.2,30-3.4,51.6-3.4
	C1121.1,5.8,1156.7,31,1156.7,76.3L1156.7,76.3z M1075.9,107.3c20.1,0,28.6-14.1,28.6-33.4s-10.1-31.4-28.2-31.4c-2,0-4.8,0-6.3,0.2
	v64.3C1071.5,107.3,1074.1,107.3,1075.9,107.3L1075.9,107.3z"/>
<path class="st0" d="M126.7,8.4H56.3L2.9,142.6h59.3l6.8-22.4h45.3l7,22.4h59.1L126.7,8.4z M91.3,103.8c-17.8,0-32.2-14.4-32.2-32.2
	s14.4-32.2,32.2-32.2s32.2,14.4,32.2,32.2S109.1,103.8,91.3,103.8z"/>
<path class="st0" d="M91.3,55.8c-8.7,0-15.8,7.1-15.8,15.8s7.1,15.8,15.8,15.8s15.8-7.1,15.8-15.8S100,55.8,91.3,55.8z M91.3,76.3
	c-2.6,0-4.8-2.1-4.8-4.8s2.1-4.8,4.8-4.8s4.8,2.1,4.8,4.8S93.9,76.3,91.3,76.3z"/>
<circle class="st0" cx="502.8" cy="119.3" r="25.9"/>
<path class="st0" d="M954.8,8.4h-70.4L831,142.6h59.3l6.8-22.4h45.3l7,22.4h59.1C1008.4,142.6,954.8,8.4,954.8,8.4z M919.4,103.8
	c-17.8,0-32.2-14.4-32.2-32.2s14.4-32.2,32.2-32.2s32.2,14.4,32.2,32.2S937.2,103.8,919.4,103.8z"/>
<circle class="st0" cx="919.4" cy="74.4" r="7.8"/>
<rect x="914.6" y="50.9" class="st0" width="9.2" height="20.7"/>
<rect x="919.6" y="69.8" class="st0" width="20.7" height="9.2"/>
</svg>
